HIERARCHY
ROOT pelvis
{
  OFFSET 0 100 0
  CHANNELS 6 Xposition Yposition Zposition Zrotation Xrotation Yrotation
  JOINT pelvis_right_femur
  {
    OFFSET -10.78128 -3.44521 -0.5502486
    CHANNELS 3 Zrotation Xrotation Yrotation
    JOINT right_femur_tibia
    {
      OFFSET -0.8047443 -44.0398 -0.1307829
      CHANNELS 3 Zrotation Xrotation Yrotation
      JOINT right_tibia_foot
      {
        OFFSET 3.006224 -47.83518 -5
        CHANNELS 3 Zrotation Xrotation Yrotation
        End Site
        {
          OFFSET 0 -5 15
        }
      }
    }
  }
  JOINT pelvis_left_femur
  {
    OFFSET 10.78128 -3.44521 -0.5502486
    CHANNELS 3 Zrotation Xrotation Yrotation
    JOINT left_femur_tibia
    {
      OFFSET 0.8047443 -44.0398 -0.1307829
      CHANNELS 3 Zrotation Xrotation Yrotation
      JOINT left_tibia_foot
      {
        OFFSET -4.370144 -48.10324 -4.275266
        CHANNELS 3 Zrotation Xrotation Yrotation
        End Site
        {
          OFFSET 0 -5 15
        }
      }
    }
  }
  JOINT pelvis_spine1
  {
    OFFSET 0 6.468898 -3.129235
    CHANNELS 3 Zrotation Xrotation Yrotation
    JOINT spine1
    {
      OFFSET 0 23.15396 4.99043
      CHANNELS 3 Zrotation Xrotation Yrotation
      JOINT spine2
      {
        OFFSET 0 20.79997 -5.064912
        CHANNELS 3 Zrotation Xrotation Yrotation
        JOINT neck
        {
          OFFSET 0 14.38658 9.616178
          CHANNELS 3 Zrotation Xrotation Yrotation
          End Site
          {
            OFFSET 0 20 0
          }
        }
      }
      JOINT right_manubrium
      {
        OFFSET -5.722621 16.35077 3.967754
        CHANNELS 3 Zrotation Xrotation Yrotation
        JOINT right_clavicle
        {
          OFFSET -13.16364 1.694482 -4.693211
          CHANNELS 3 Zrotation Xrotation Yrotation
          JOINT right_humerus
          {
            OFFSET -28.5034 -0.3100689 -2.792744
            CHANNELS 3 Zrotation Xrotation Yrotation
            JOINT right_radius
            {
              OFFSET -25.15693 0.02248979 -1.271978
              CHANNELS 3 Zrotation Xrotation Yrotation
              End Site
              {
                OFFSET -15 0 0
              }
            }
          }
        }
      }
      JOINT left_manubrium
      {
        OFFSET 5.722621 16.35077 3.967754
        CHANNELS 3 Zrotation Xrotation Yrotation
        JOINT left_clavicle
        {
          OFFSET 13.16364 1.694482 -4.693211
          CHANNELS 3 Zrotation Xrotation Yrotation
          JOINT left_humerus
          {
            OFFSET 29.39168 -1.063119 -2.237045
            CHANNELS 3 Zrotation Xrotation Yrotation
            JOINT left_radius
            {
              OFFSET 24.59957 -0.9528479 0.9047498
              CHANNELS 3 Zrotation Xrotation Yrotation
              End Site
              {
                OFFSET 15 -0 -0
              }
            }
          }
        }
      }
    }
  }
}
MOTION
Frames: 7
Frame Time: 0.0416666666667
-1498.422 98.86942 1518.011 -3.625077 9.461773 -139.4981 7.679843 12.30809 2.384925 -0 20.65973 -0 -6.052834 -2.863421 -2.358941 2.752631 -10.68698 -8.196083 -0 17.55038 -0 5.362099 -2.207389 18.85201 3.115463 -6.398109 4.960801 1.421942 18.32748 -5.698226 4.034655 21.63732 1.450487 -4.472704 -27.47502 10.3707 -6.303779 -32.49452 13.14695 96.00227 0.7796771 -11.38705 -0 0 17.66924 -33.99064 22.76048 27.28763 -0.609181 -20.48366 -6.95218 -98.35415 22.3579 35.16916 0 0 -11.80819 1.522322 20.93678 13.33003
-1502.974 98.87873 1513.802 -3.563395 9.484992 -139.8728 7.679843 12.30809 2.384925 -0 20.65973 -0 -6.052834 -2.863421 -2.358941 2.752631 -10.68698 -8.196083 -0 17.55038 -0 5.362099 -2.207389 18.85201 3.115463 -6.398109 4.960801 1.421942 18.32748 -5.698226 4.034655 21.63732 1.450487 -4.472704 -27.47502 10.3707 -6.303779 -32.49452 13.14695 96.00227 0.7796771 -11.38705 -0 0 17.66924 -33.99064 22.76048 27.28763 -0.609181 -20.48366 -6.95218 -98.35415 22.3579 35.16916 0 0 -11.80819 1.522322 20.93678 13.33003
-1507.498 98.88803 1509.564 -3.501557 9.507813 -140.2476 7.679843 12.30809 2.384925 -0 20.65973 -0 -6.052834 -2.863421 -2.358941 2.752631 -10.68698 -8.196083 -0 17.55038 -0 5.362099 -2.207389 18.85201 3.115463 -6.398109 4.960801 1.421942 18.32748 -5.698226 4.034655 21.63732 1.450487 -4.472704 -27.47502 10.3707 -6.303779 -32.49452 13.14695 96.00227 0.7796771 -11.38705 -0 0 17.66924 -33.99064 22.76048 27.28763 -0.609181 -20.48366 -6.95218 -98.35415 22.3579 35.16916 0 0 -11.80819 1.522322 20.93678 13.33003
-1511.995 98.89733 1505.297 -3.439564 9.530234 -140.6225 7.679843 12.30809 2.384925 -0 20.65973 -0 -6.052834 -2.863421 -2.358941 2.752631 -10.68698 -8.196083 -0 17.55038 -0 5.362099 -2.207389 18.85201 3.115463 -6.398109 4.960801 1.421942 18.32748 -5.698226 4.034655 21.63732 1.450487 -4.472704 -27.47502 10.3707 -6.303779 -32.49452 13.14695 96.00227 0.7796771 -11.38705 -0 0 17.66924 -33.99064 22.76048 27.28763 -0.609181 -20.48366 -6.95218 -98.35415 22.3579 35.16916 0 0 -11.80819 1.522322 20.93678 13.33003
-1516.464 98.90663 1501 -3.37742 9.552254 -140.9974 7.679843 12.30809 2.384925 -0 20.65973 -0 -6.052834 -2.863421 -2.358941 2.752631 -10.68698 -8.196083 -0 17.55038 -0 5.362099 -2.207389 18.85201 3.115463 -6.398109 4.960801 1.421942 18.32748 -5.698226 4.034655 21.63732 1.450487 -4.472704 -27.47502 10.3707 -6.303779 -32.49452 13.14695 96.00227 0.7796771 -11.38705 -0 0 17.66924 -33.99064 22.76048 27.28763 -0.609181 -20.48366 -6.95218 -98.35415 22.3579 35.16916 0 0 -11.80819 1.522322 20.93678 13.33003
-1520.906 98.91593 1496.675 -3.315128 9.573873 -141.3724 7.679843 12.30809 2.384925 -0 20.65973 -0 -6.052834 -2.863421 -2.358941 2.752631 -10.68698 -8.196083 -0 17.55038 -0 5.362099 -2.207389 18.85201 3.115463 -6.398109 4.960801 1.421942 18.32748 -5.698226 4.034655 21.63732 1.450487 -4.472704 -27.47502 10.3707 -6.303779 -32.49452 13.14695 96.00227 0.7796771 -11.38705 -0 0 17.66924 -33.99064 22.76048 27.28763 -0.609181 -20.48366 -6.95218 -98.35415 22.3579 35.16916 0 0 -11.80819 1.522322 20.93678 13.33003
-1525.319 98.92524 1492.321 -3.252689 9.59509 -141.7474 7.679843 12.30809 2.384925 -0 20.65973 -0 -6.052834 -2.863421 -2.358941 2.752631 -10.68698 -8.196083 -0 17.55038 -0 5.362099 -2.207389 18.85201 3.115463 -6.398109 4.960801 1.421942 18.32748 -5.698226 4.034655 21.63732 1.450487 -4.472704 -27.47502 10.3707 -6.303779 -32.49452 13.14695 96.00227 0.7796771 -11.38705 -0 0 17.66924 -33.99064 22.76048 27.28763 -0.609181 -20.48366 -6.95218 -98.35415 22.3579 35.16916 0 0 -11.80819 1.522322 20.93678 13.33003
